<svg width="20" height="20" viewBox="0 0 20 20" fill="none" xmlns="http://www.w3.org/2000/svg">
<g clip-path="url(#clip0_21_15)">
<path d="M10.0001 0C4.47789 0 0 4.58456 0 10.2401C0 14.7644 2.86531 18.6029 6.83867 19.9569C7.33844 20.0517 7.52195 19.7347 7.52195 19.4642C7.52195 19.2201 7.51258 18.4134 7.50836 17.5578C4.72633 18.1772 4.1393 16.3496 4.1393 16.3496C3.68438 15.166 3.02891 14.8512 3.02891 14.8512C2.12164 14.2157 3.09734 14.2288 3.09734 14.2288C4.10148 14.301 4.63023 15.284 4.63023 15.284C5.52219 16.8494 6.96969 16.3969 7.54031 16.1352C7.63008 15.4734 7.88922 15.0216 8.17523 14.7659C5.95406 14.507 3.61914 13.629 3.61914 9.70528C3.61914 8.58728 4.00977 7.67376 4.64945 6.95664C4.54563 6.69872 4.20336 5.65728 4.74633 4.24672C4.74633 4.24672 5.58609 3.97152 7.49711 5.2964C8.29477 5.06952 9.15024 4.95576 10.0001 4.95184C10.8499 4.95576 11.7061 5.06944 12.5052 5.2964C14.4139 3.9716 15.2525 4.2468 15.2525 4.2468C15.7968 5.6572 15.4544 6.6988 15.3505 6.95664C15.9917 7.67376 16.3797 8.58728 16.3797 9.70528C16.3797 13.6383 14.0403 14.5043 11.8135 14.7578C12.1722 15.0756 12.4918 15.6988 12.4918 16.6542C12.4918 18.0242 12.4802 19.127 12.4802 19.4642C12.4802 19.7368 12.6602 20.0561 13.1671 19.9554C17.1383 18.6 20 14.763 20 10.2402C20 4.58456 15.5227 0 10.0001 0ZM3.74539 14.5872C3.72336 14.6381 3.64516 14.6534 3.57398 14.6184C3.50141 14.585 3.4607 14.5157 3.48414 14.4646C3.5057 14.4122 3.58406 14.3976 3.65641 14.4327C3.72906 14.4662 3.77047 14.5362 3.74539 14.5872ZM4.23727 15.0366C4.18961 15.0819 4.09633 15.0609 4.03305 14.9894C3.96766 14.918 3.95539 14.8225 4.00375 14.7766C4.05297 14.7313 4.14336 14.7525 4.20891 14.8238C4.27437 14.8961 4.28703 14.9909 4.23727 15.0366ZM4.57477 15.6117C4.51344 15.6553 4.41328 15.6144 4.35133 15.5234C4.29008 15.4323 4.29008 15.3231 4.35266 15.2794C4.41477 15.2356 4.51344 15.275 4.57617 15.3654C4.63727 15.4579 4.63727 15.5671 4.57469 15.6118L4.57477 15.6117ZM5.14539 16.2777C5.09062 16.3396 4.97383 16.323 4.88836 16.2385C4.80094 16.1559 4.77664 16.0388 4.83164 15.9769C4.88711 15.9148 5.00453 15.9322 5.09063 16.0161C5.17734 16.0985 5.20391 16.2165 5.14539 16.2777ZM5.88305 16.5025C5.85883 16.5827 5.74633 16.6192 5.63312 16.5851C5.52 16.55 5.44602 16.4561 5.46883 16.375C5.49234 16.2942 5.60531 16.2563 5.71938 16.2928C5.83234 16.3277 5.90656 16.4209 5.88305 16.5025ZM6.72242 16.5979C6.72523 16.6823 6.62922 16.7523 6.51031 16.7539C6.39078 16.7566 6.29398 16.6883 6.29266 16.6051C6.29266 16.5199 6.38656 16.4506 6.50617 16.4485C6.62508 16.4461 6.72242 16.5139 6.72242 16.5979ZM7.54703 16.5655C7.56125 16.6479 7.47867 16.7326 7.36055 16.7551C7.24453 16.7768 7.13703 16.7259 7.12227 16.6442C7.10789 16.5598 7.19203 16.4751 7.30789 16.4533C7.42617 16.4322 7.53195 16.4818 7.54703 16.5655Z" fill="white"/>
</g>
<defs>
<clipPath id="clip0_21_15">
<rect width="20" height="20" fill="white"/>
</clipPath>
</defs>
</svg>
