<svg width="528" height="528" viewBox="0 0 528 528" fill="none" xmlns="http://www.w3.org/2000/svg">
<g opacity="0.9">
<path d="M164.567 121.638C164.567 90.893 193.778 74.6459 220.498 58.3857C243.158 44.5964 264 30.8142 264 8C264 30.932 284.708 44.5257 307.502 58.3857C334.126 74.574 363.432 91.0265 363.432 121.637C338.56 119.771 312.859 116.855 290.987 138.727C305.649 154.275 320.818 170.36 320.818 199.718C302.992 206.206 285.703 203.235 264 224.937C242.298 203.235 225.008 206.207 207.181 199.719C207.181 170.361 222.35 154.276 237.012 138.728C215.14 116.856 189.439 119.772 164.567 121.638Z" fill="#00A63E"/>
<path d="M121.638 363.433C90.8596 363.432 74.6694 334.255 58.3914 307.51C44.6196 284.884 30.7849 264 8 264C30.8157 264 44.5108 243.24 58.3861 220.498C74.7458 193.684 91.2684 164.214 122.012 164.214C120.146 189.086 116.855 215.14 138.727 237.013C154.275 222.35 170.36 207.182 199.718 207.182C206.206 225.008 203.235 242.297 224.937 264C203.235 285.702 206.207 302.992 199.719 320.819C170.361 320.819 154.276 305.65 138.728 290.988C116.856 312.86 119.772 338.56 121.638 363.433Z" fill="#00A63E"/>
<path d="M237.012 138.728C222.35 154.276 207.181 170.361 207.181 199.719C200.256 197.199 193.251 193.251 185.874 185.874C193.251 193.251 197.197 200.257 199.718 207.182C170.36 207.182 154.275 222.35 138.727 237.013C116.855 215.14 120.146 189.086 122.012 164.214C123.574 143.398 123.763 123.763 107.747 107.747C123.763 123.763 143.751 123.2 164.567 121.638C189.439 119.772 215.14 116.856 237.012 138.728Z" fill="#008236"/>
<path d="M363.433 406.362C363.433 437.107 334.222 453.354 307.502 469.614C284.842 483.404 264 497.186 264 520C264 497.068 243.292 483.474 220.498 469.614C193.874 453.426 164.568 436.973 164.568 406.363C189.44 408.229 215.141 411.145 237.013 389.273C222.351 373.725 207.182 357.64 207.182 328.282C225.008 321.794 242.297 324.765 264 303.063C285.702 324.765 302.992 321.793 320.819 328.281C320.819 357.639 305.65 373.724 290.988 389.272C312.86 411.144 338.561 408.228 363.433 406.362Z" fill="#00A63E"/>
<path d="M406.362 164.567C437.14 164.568 453.331 193.745 469.609 220.489C483.38 243.116 497.215 264 520 264C497.184 264 483.489 284.76 469.614 307.502C453.254 334.316 436.732 363.786 405.988 363.786C407.854 338.914 411.145 312.86 389.273 290.987C373.725 305.65 357.64 320.818 328.282 320.818C321.794 302.992 324.765 285.703 303.063 264C324.765 242.298 321.793 225.008 328.281 207.181C357.639 207.181 373.724 222.35 389.272 237.012C411.144 215.14 408.228 189.439 406.362 164.567Z" fill="#00A63E"/>
<path d="M290.988 389.272C305.65 373.724 320.819 357.639 320.819 328.281C327.744 330.801 334.749 334.749 342.126 342.126C334.749 334.749 330.803 327.743 328.282 320.818C357.64 320.818 373.725 305.65 389.273 290.987C411.145 312.86 407.854 338.914 405.988 363.786C404.426 384.602 404.237 404.236 420.253 420.253C404.237 404.236 384.249 404.8 363.433 406.362C338.561 408.228 312.86 411.144 290.988 389.272Z" fill="#008236"/>
<path d="M290.987 138.727C305.649 154.275 320.818 170.36 320.818 199.718C327.743 197.197 334.749 193.249 342.125 185.873C334.749 193.249 330.801 200.257 328.281 207.181C357.639 207.181 373.724 222.35 389.272 237.012C411.144 215.14 408.228 189.439 406.362 164.567C404.8 143.751 404.236 123.762 420.252 107.746C404.236 123.762 384.248 123.199 363.432 121.637C338.56 119.771 312.859 116.855 290.987 138.727Z" fill="#008236"/>
<path d="M138.728 290.988C154.276 305.65 170.361 320.819 199.719 320.819C197.199 327.743 193.251 334.749 185.874 342.126C193.251 334.749 200.257 330.803 207.182 328.282C207.182 357.64 222.351 373.725 237.013 389.273C215.141 411.145 189.44 408.229 164.568 406.363C143.752 404.801 123.764 404.236 107.747 420.253C123.764 404.236 123.2 384.249 121.638 363.433C119.772 338.56 116.856 312.86 138.728 290.988Z" fill="#008236"/>
<path d="M207.181 199.719C225.008 206.207 242.298 203.235 264 224.937C285.703 203.235 302.992 206.206 320.818 199.718C327.743 197.197 334.749 193.249 342.125 185.873C334.749 193.249 330.801 200.257 328.281 207.181C321.793 225.008 324.765 242.298 303.063 264C324.765 285.703 321.794 302.992 328.282 320.818C330.803 327.743 334.749 334.749 342.126 342.126C334.749 334.749 327.744 330.801 320.819 328.281C302.992 321.793 285.702 324.765 264 303.063C242.297 324.765 225.008 321.794 207.182 328.282C200.257 330.803 193.251 334.749 185.874 342.126C193.251 334.749 197.199 327.743 199.719 320.819C206.207 302.992 203.235 285.702 224.937 264C203.235 242.297 206.206 225.008 199.718 207.182C197.197 200.257 193.251 193.251 185.874 185.874C193.251 193.251 200.256 197.199 207.181 199.719Z" fill="#00C950"/>
<path d="M107.747 420.253C123.764 404.236 123.2 384.249 121.638 363.433C90.8596 363.432 74.6694 334.255 58.3914 307.51C15.1006 350.801 95.91 432.09 58.0306 469.97C95.91 432.09 177.207 512.905 220.498 469.614C193.874 453.426 164.568 436.973 164.568 406.363C143.752 404.801 123.764 404.236 107.747 420.253Z" fill="#032E15"/>
<path d="M420.253 420.253C404.237 404.236 384.249 404.8 363.433 406.362C363.433 437.107 334.222 453.354 307.502 469.614C350.793 512.905 432.984 432.441 470.863 470.321C432.984 432.441 512.905 350.793 469.614 307.502C453.254 334.316 436.732 363.786 405.988 363.786C404.426 384.602 404.237 404.236 420.253 420.253Z" fill="#032E15"/>
<path d="M420.252 107.746C404.236 123.762 384.248 123.199 363.432 121.637C363.432 91.0265 334.126 74.574 307.502 58.3857C350.793 15.0949 432.09 95.9088 469.969 58.0294C432.09 95.9088 512.899 177.199 469.609 220.489C453.331 193.745 437.14 164.568 406.362 164.567C404.8 143.751 404.236 123.762 420.252 107.746Z" fill="#032E15"/>
<path d="M107.747 107.747C123.763 123.763 143.751 123.2 164.567 121.638C164.567 90.893 193.778 74.6459 220.498 58.3857C177.207 15.0949 95.0162 95.5587 57.1367 57.6793C95.0162 95.5587 15.0954 177.207 58.3861 220.498C74.7458 193.684 91.2684 164.214 122.012 164.214C123.574 143.398 123.763 123.763 107.747 107.747Z" fill="#032E15"/>
<path d="M86.0808 264C109.903 264 124.316 277.398 138.728 290.988C116.856 312.86 119.772 338.56 121.638 363.433C90.8596 363.432 74.6694 334.255 58.3914 307.51C44.6196 284.884 30.7849 264 8 264C30.8157 264 44.5108 243.24 58.3861 220.498C74.7458 193.684 91.2684 164.214 122.012 164.214C120.146 189.086 116.855 215.14 138.727 237.013C124.315 250.602 109.903 264 86.0808 264Z" fill="#016630"/>
<path d="M264 441.919C264 418.097 277.399 403.684 290.988 389.272C312.86 411.144 338.561 408.228 363.433 406.362C363.433 437.107 334.222 453.354 307.502 469.614C284.842 483.404 264 497.186 264 520C264 497.068 243.292 483.474 220.498 469.614C193.874 453.426 164.568 436.973 164.568 406.363C189.44 408.229 215.141 411.145 237.013 389.273C250.602 403.685 264 418.097 264 441.919Z" fill="#016630"/>
<path d="M441.919 264C418.097 264 403.684 250.601 389.272 237.012C411.144 215.14 408.228 189.439 406.362 164.567C437.14 164.568 453.331 193.745 469.609 220.489C483.38 243.116 497.215 264 520 264C497.184 264 483.489 284.76 469.614 307.502C453.254 334.316 436.732 363.786 405.988 363.786C407.854 338.914 411.145 312.86 389.273 290.987C403.685 277.398 418.097 264 441.919 264Z" fill="#016630"/>
<path d="M264 86.0808C264 109.903 250.601 124.316 237.012 138.728C215.14 116.856 189.439 119.772 164.567 121.638C164.567 90.893 193.778 74.6459 220.498 58.3857C243.158 44.5964 264 30.8142 264 8C264 30.932 284.708 44.5257 307.502 58.3857C334.126 74.574 363.432 91.0265 363.432 121.637C338.56 119.771 312.859 116.855 290.987 138.727C277.398 124.315 264 109.903 264 86.0808Z" fill="#016630"/>
<path d="M164.567 121.638C189.439 119.772 215.14 116.856 237.012 138.728M164.567 121.638C143.751 123.2 123.763 123.763 107.747 107.747C123.763 123.763 123.574 143.398 122.012 164.214M164.567 121.638C164.567 90.893 193.778 74.6459 220.498 58.3857M207.181 199.719C207.181 170.361 222.35 154.276 237.012 138.728M207.181 199.719C225.008 206.207 242.298 203.235 264 224.937M207.181 199.719C200.256 197.199 193.251 193.251 185.874 185.874C193.251 193.251 197.197 200.257 199.718 207.182M237.012 138.728C250.601 124.316 264 109.903 264 86.0808C264 109.903 277.398 124.315 290.987 138.727M220.498 58.3857C177.207 15.0949 95.0161 95.5587 57.1367 57.6793C95.0162 95.5587 15.0954 177.207 58.3861 220.498M220.498 58.3857C243.158 44.5964 264 30.8142 264 8C264 30.932 284.708 44.5257 307.502 58.3857M264 224.937C285.703 203.235 302.992 206.206 320.818 199.718M264 224.937C264 224.937 283.531 244.469 264 264M363.432 121.637C338.56 119.771 312.859 116.855 290.987 138.727M363.432 121.637C384.248 123.199 404.236 123.762 420.252 107.746C404.236 123.762 404.8 143.751 406.362 164.567M363.432 121.637C363.432 91.0265 334.126 74.574 307.502 58.3857M320.818 199.718C320.818 170.36 305.649 154.275 290.987 138.727M320.818 199.718C327.743 197.197 334.749 193.249 342.125 185.873C334.749 193.249 330.801 200.256 328.281 207.181M307.502 58.3857C350.793 15.0949 432.09 95.9088 469.969 58.0294C432.09 95.9088 512.899 177.199 469.609 220.489M121.638 363.433C119.772 338.56 116.856 312.86 138.728 290.988M121.638 363.433C123.2 384.248 123.764 404.236 107.747 420.253C123.764 404.236 143.752 404.801 164.568 406.363M121.638 363.433C90.8596 363.432 74.6694 334.255 58.3914 307.51M199.719 320.819C170.361 320.819 154.276 305.65 138.728 290.988M199.719 320.819C206.207 302.992 203.235 285.702 224.937 264M199.719 320.819C197.199 327.743 193.251 334.749 185.874 342.126C193.251 334.749 200.257 330.803 207.182 328.282M138.728 290.988C124.316 277.398 109.903 264 86.0808 264C109.903 264 124.315 250.602 138.727 237.013M58.3914 307.51C15.1006 350.801 95.91 432.09 58.0306 469.97C95.91 432.09 177.207 512.905 220.498 469.614M58.3914 307.51C44.6196 284.884 30.7849 264 8 264C30.8157 264 44.5108 243.24 58.3861 220.498M224.937 264C203.235 242.297 206.206 225.008 199.718 207.182M224.937 264C224.937 264 244.468 244.468 264 264M122.012 164.214C120.146 189.086 116.855 215.14 138.727 237.013M122.012 164.214C91.2684 164.214 74.7458 193.684 58.3861 220.498M199.718 207.182C170.36 207.182 154.275 222.35 138.727 237.013M363.433 406.362C338.561 408.228 312.86 411.144 290.988 389.272M363.433 406.362C384.249 404.8 404.237 404.236 420.253 420.253C404.237 404.236 404.426 384.602 405.988 363.786M363.433 406.362C363.433 437.107 334.222 453.354 307.502 469.614M320.819 328.281C320.819 357.639 305.65 373.724 290.988 389.272M320.819 328.281C302.992 321.793 285.702 324.765 264 303.063M320.819 328.281C327.744 330.801 334.749 334.749 342.126 342.126C334.749 334.749 330.803 327.743 328.282 320.818M290.988 389.272C277.399 403.684 264 418.097 264 441.919C264 418.097 250.602 403.685 237.013 389.273M307.502 469.614C350.793 512.905 432.984 432.441 470.863 470.321C432.984 432.441 512.905 350.793 469.614 307.502M307.502 469.614C284.842 483.404 264 497.186 264 520C264 497.068 243.292 483.474 220.498 469.614M264 303.063C242.297 324.765 225.008 321.794 207.182 328.282M264 303.063C264 303.063 244.469 283.531 264 264M164.568 406.363C189.44 408.229 215.141 411.145 237.013 389.273M164.568 406.363C164.568 436.973 193.874 453.426 220.498 469.614M207.182 328.282C207.182 357.64 222.351 373.725 237.013 389.273M406.362 164.567C408.228 189.439 411.144 215.14 389.272 237.012M406.362 164.567C437.14 164.568 453.331 193.745 469.609 220.489M328.281 207.181C357.639 207.181 373.724 222.35 389.272 237.012M328.281 207.181C321.793 225.008 324.765 242.298 303.063 264M389.272 237.012C403.684 250.601 418.097 264 441.919 264C418.097 264 403.685 277.398 389.273 290.987M469.609 220.489C483.38 243.116 497.215 264 520 264C497.184 264 483.489 284.76 469.614 307.502M303.063 264C324.765 285.703 321.794 302.992 328.282 320.818M303.063 264C303.063 264 283.532 283.532 264 264M405.988 363.786C407.854 338.914 411.145 312.86 389.273 290.987M405.988 363.786C436.732 363.786 453.254 334.316 469.614 307.502M328.282 320.818C357.64 320.818 373.725 305.65 389.273 290.987" stroke="black" stroke-width="16" stroke-linecap="round" stroke-linejoin="round"/>
</g>
</svg>

